<svg xmlns="http://www.w3.org/2000/svg" viewBox="0 0 326.42 336.02"><defs><style>.cls-1,.cls-3{fill:#084be4;}.cls-1,.cls-2{stroke:#084be4;stroke-miterlimit:10;stroke-width:24px;}.cls-2{fill:none;}</style></defs><g id="Layer_2" data-name="Layer 2"><g id="Layer_1-2" data-name="Layer 1"><path class="cls-1" d="M261.2,128.72v77.9a30.51,30.51,0,0,1-15.26,26.43L193.4,263.39a60.41,60.41,0,0,1-60.38,0L80.48,233.05a30.53,30.53,0,0,1-15.26-26.43v-77.9c0-3.06.86,2.62.86,2.62s4.13,9.38,10.72,13.18l56.6,32.68a59.62,59.62,0,0,0,59.62,0l56.61-32.68a23.15,23.15,0,0,0,11.48-18C261.17,127.22,261.2,128,261.2,128.72Z"/><path class="cls-2" d="M314.42,123.49v89a74.11,74.11,0,0,1-37,64.17L223.3,307.92a120.17,120.17,0,0,1-120.18,0L49,276.7a74.11,74.11,0,0,1-37-64.17v-89A74.08,74.08,0,0,1,49,59.33L103.12,28.1a120.17,120.17,0,0,1,120.18,0l54.08,31.23A74.08,74.08,0,0,1,314.42,123.49Z"/><path class="cls-2" d="M261.47,124.81h0a23.16,23.16,0,0,1-11.57,20.05l-56.61,32.68a59.62,59.62,0,0,1-59.62,0L77.06,144.86a23.16,23.16,0,0,1-11.57-20.05h0a23.16,23.16,0,0,1,11.57-20l56.61-32.68a59.62,59.62,0,0,1,59.62,0l56.61,32.68A23.16,23.16,0,0,1,261.47,124.81Z"/><polygon class="cls-3" points="226.73 129.85 203.82 143.22 117.28 134.22 115.7 109.98 138.61 96.62 140.18 120.85 226.73 129.85"/></g></g></svg>